<svg width="517" height="569" fill="none" xmlns="http://www.w3.org/2000/svg"><mask id="a" style="mask-type:alpha" maskUnits="userSpaceOnUse" x="0" y="0" width="517" height="569"><path d="M384.411 425.169h-39.86c-2.098-8.316-4.073-15.89-5.924-23.612-14.561-59.254-29.124-118.507-46.277-176.721-3.455-11.583-6.911-23.167-10.613-34.75-1.111-3.712-2.345-7.277-3.579-10.989-19.004-57.174-42.945-111.379-68.614-164.544-1.604-3.415-3.825-6.682-6.17-9.356C200.165 1.782 196.833 0 193.625 0c-4.32 0-8.145 3.119-10.983 9.059-9.503 20.642-19.252 41.284-27.767 62.52-44.673 112.715-79.72 229.886-109.091 349.581-.247 1.188-.494 2.376-.617 3.712H5.183C3.455 439.574 1.851 453.386 0 468.683c32.21-6.241 64.171-13.068 96.75-15.744 14.686-1.19 50.104-1.631 87.989-1.782l.494-1.782c2.221-8.316 4.443-16.632 6.664-24.503H88.729c0-.594.124-1.039.124-1.633v-.149c2.961-94.152 37.762-184.146 67.01-269.833 5.182-14.999 10.365-29.849 15.795-44.7 2.715-7.425 5.554-14.85 8.269-22.276.987-2.525 9.255-19.9 8.268-21.533 3.332 5.792 6.047 9.207 7.528 13.217 15.179 40.393 30.358 80.935 45.29 121.477 4.689 12.771 8.638 25.988 12.834 39.057l.741 2.228c5.306 16.335 9.996 32.968 14.438 49.6 6.911 25.988 13.205 52.274 19.375 78.411 2.962 12.177 4.566 24.948 6.541 37.571.987 6.238 1.604 12.326 2.221 18.563h-63.925c-.123.446-.247 1.04-.37 1.485-1.851 8.317-3.702 16.633-5.183 24.8 32.949.151 62.444.743 75.525 1.19 26.039 1.184 51.707 6.832 76.882 14.107 3.085.893 6.17 1.335 9.626 1.933-1.605-15.152-3.456-29.258-5.307-43.218z" fill="#DA5C3E"/><path d="M516.666 568.849c-3.578-.743-6.668-1.184-9.633-2.078-25.315-7.274-51.007-12.917-76.943-13.962-17.29-.737-63.358-1.335-108.314-1.335-41.745 0-82.625.447-98.681 1.782-32.606 2.676-64.594 9.504-96.829 15.744 1.852-15.448 3.458-29.258 5.187-43.812h40.016c.124-1.335.371-2.525.617-3.71 5.064-20.492 10.128-40.84 15.562-61.036.371-1.486.741-2.822 1.112-4.308.371-1.486.741-2.821 1.111-4.307 2.347-8.76 4.694-17.522 7.164-26.284.37-1.485.741-2.821 1.235-4.306a56.618 56.618 0 011.235-4.307c15.438-55.541 32.482-110.19 51.502-164.246 5.187 16.632 9.88 33.562 14.326 50.491-12.72 37.126-25.195 74.995-34.581 113.607-.371 1.336-.617 2.821-.988 4.157v.149c-.371 1.485-.618 2.822-.988 4.307-1.976 8.762-3.829 17.523-5.434 26.287-.247 1.335-.494 2.821-.742 4.307-.246 1.481-.494 2.821-.74 4.302-3.459 20.794-5.805 41.734-6.423 62.969v.146c0 .447-.123 1.039-.123 1.637h208.848c-.618-6.241-1.235-12.476-2.223-18.565-1.976-12.621-3.582-25.247-6.546-37.572-10.374-43.808-20.872-87.914-34.582-130.238-4.199-13.068-8.151-26.286-12.844-39.057-14.944-40.542-30.135-81.084-45.327-121.477-1.482-4.009-4.199-7.425-7.533-13.217.987 1.634-7.411 19.009-8.275 21.534-2.841 7.424-5.558 14.85-8.275 22.423-.618 1.634-1.112 3.119-1.729 4.753-2.594-8.762-5.311-17.524-8.028-26.137-1.977-6.237-3.952-12.326-6.052-18.415 8.152-20.345 17.538-39.947 26.677-59.699 2.841-6.088 6.669-9.059 10.992-9.059 3.211 0 6.546 1.783 9.757 5.198 2.47 2.673 4.57 5.94 6.175 9.356 27.295 56.58 52.737 114.201 72.128 175.384 21.984 69.352 39.52 140.337 56.936 211.474 1.854 7.57 3.829 15.291 5.929 23.61h39.892c1.482 13.81 3.336 27.917 5.432 43.51z" fill="#DA5C3E"/></mask><g mask="url(#a)"><path fill="#fff" d="M-364-19H788.15v574.273H-364z"/></g></svg>