<svg width="517" height="569" viewBox="0 0 517 569" fill="none" xmlns="http://www.w3.org/2000/svg">
<mask id="mask0_19_72" style="mask-type:alpha" maskUnits="userSpaceOnUse" x="0" y="0" width="517" height="569">
<path d="M384.411 425.169H344.551C342.453 416.853 340.478 409.279 338.627 401.557C324.066 342.303 309.503 283.05 292.35 224.836C288.895 213.253 285.439 201.669 281.737 190.086C280.626 186.374 279.392 182.809 278.158 179.097C259.154 121.923 235.213 67.7183 209.544 14.5532C207.94 11.138 205.719 7.87077 203.374 5.19747C200.165 1.78221 196.833 0 193.625 0C189.305 0 185.48 3.11859 182.642 9.05855C173.139 29.7009 163.39 50.3432 154.875 71.5794C110.202 184.294 75.1543 301.465 45.7838 421.16C45.5368 422.348 45.2903 423.536 45.1668 424.872H5.18308C3.45538 439.574 1.8511 453.386 0 468.683C32.2091 462.442 64.1714 455.615 96.7506 452.939C111.436 451.749 146.854 451.308 184.739 451.157L185.233 449.375C187.454 441.059 189.676 432.743 191.897 424.872H88.7294C88.7294 424.278 88.8525 423.833 88.8525 423.239V423.09C91.8142 328.938 126.615 238.944 155.863 153.257C161.045 138.258 166.228 123.408 171.658 108.557C174.373 101.132 177.212 93.7067 179.927 86.2812C180.914 83.7565 189.182 66.3819 188.195 64.7483C191.527 70.5397 194.242 73.9555 195.723 77.9652C210.902 118.358 226.081 158.9 241.013 199.442C245.702 212.213 249.651 225.43 253.847 238.499C254.094 239.241 254.341 239.984 254.588 240.727C259.894 257.062 264.584 273.695 269.026 290.327C275.937 316.315 282.231 342.601 288.401 368.738C291.363 380.915 292.967 393.686 294.942 406.309C295.929 412.547 296.546 418.635 297.163 424.872H233.238C233.115 425.318 232.991 425.912 232.868 426.357C231.017 434.674 229.166 442.99 227.685 451.157C260.634 451.308 290.129 451.9 303.21 452.347C329.249 453.531 354.917 459.179 380.092 466.454C383.177 467.347 386.262 467.789 389.718 468.387C388.113 453.235 386.262 439.129 384.411 425.169Z" fill="#DA5C3E"/>
<path d="M516.666 568.849C513.088 568.106 509.998 567.665 507.033 566.771C481.718 559.497 456.026 553.854 430.09 552.809C412.8 552.072 366.732 551.474 321.776 551.474C280.031 551.474 239.151 551.921 223.095 553.256C190.489 555.932 158.501 562.76 126.266 569C128.118 553.552 129.724 539.742 131.453 525.188H171.469C171.593 523.853 171.84 522.663 172.086 521.478C177.15 500.986 182.214 480.638 187.648 460.442C188.019 458.956 188.389 457.62 188.76 456.134C189.131 454.648 189.501 453.313 189.871 451.827C192.218 443.067 194.565 434.305 197.035 425.543C197.405 424.058 197.776 422.722 198.27 421.237C198.641 419.752 199.011 418.415 199.505 416.93C214.943 361.389 231.987 306.74 251.007 252.684C256.194 269.316 260.887 286.246 265.333 303.175C252.613 340.301 240.138 378.17 230.752 416.782C230.381 418.118 230.135 419.603 229.764 420.939C229.764 420.939 229.764 420.939 229.764 421.088C229.393 422.573 229.146 423.91 228.776 425.395C226.8 434.157 224.947 442.918 223.342 451.682C223.095 453.017 222.848 454.503 222.6 455.989C222.354 457.47 222.106 458.81 221.86 460.291C218.401 481.085 216.055 502.025 215.437 523.26V523.406C215.437 523.853 215.314 524.445 215.314 525.043H424.162C423.544 518.802 422.927 512.567 421.939 506.478C419.963 493.857 418.357 481.231 415.393 468.906C405.019 425.098 394.521 380.992 380.811 338.668C376.612 325.6 372.66 312.382 367.967 299.611C353.023 259.069 337.832 218.527 322.64 178.134C321.158 174.125 318.441 170.709 315.107 164.917C316.094 166.551 307.696 183.926 306.832 186.451C303.991 193.875 301.274 201.301 298.557 208.874C297.939 210.508 297.445 211.993 296.828 213.627C294.234 204.865 291.517 196.103 288.8 187.49C286.823 181.253 284.848 175.164 282.748 169.075C290.9 148.73 300.286 129.128 309.425 109.376C312.266 103.288 316.094 100.317 320.417 100.317C323.628 100.317 326.963 102.1 330.174 105.515C332.644 108.188 334.744 111.455 336.349 114.871C363.644 171.451 389.086 229.072 408.477 290.255C430.461 359.607 447.997 430.592 465.413 501.729C467.267 509.299 469.242 517.02 471.342 525.339H511.234C512.716 539.149 514.57 553.256 516.666 568.849Z" fill="#DA5C3E"/>
</mask>
<g mask="url(#mask0_19_72)">
<rect x="-364" y="-19" width="1152.15" height="574.273" fill="white"/>
</g>
</svg>
